<svg width="266" height="225" viewBox="0 0 266 225" fill="none" xmlns="http://www.w3.org/2000/svg">
<path d="M91.3502 22.2937C111.137 -7.43126 154.806 -7.43121 174.593 22.2937L257.481 146.812C279.601 180.042 255.779 224.518 215.86 224.518H50.0839C10.1648 224.518 -13.6579 180.042 8.46234 146.812L91.3502 22.2937Z" fill="black"/>
<path d="M124.649 110.275C128.607 116.216 137.336 116.216 141.294 110.275L155.093 89.562C159.52 82.9162 154.756 74.0178 146.77 74.0178H119.173C111.188 74.0178 106.424 82.9162 110.851 89.562L124.649 110.275Z" fill="white"/>
<path d="M123.345 131.005C126.079 121.281 139.864 121.281 142.598 131.005L161.875 199.561C163.668 205.94 158.874 212.268 152.248 212.268H113.695C107.069 212.268 102.275 205.94 104.069 199.561L123.345 131.005Z" fill="white"/>
</svg>
